<svg width="1728" height="2693" viewBox="0 0 1728 2693" fill="none" xmlns="http://www.w3.org/2000/svg">
<g opacity="0.5">
<path d="M3162.3 2215.99C3162.3 2215.99 3497.75 751.928 2482.97 1282.34C1468.21 1812.74 2123.36 542.068 1477.05 1000.43C830.743 1458.8 903.467 -11.1683 -389.106 87.728" stroke="white" stroke-opacity="0.7" strokeWidth="4.5067" stroke-miterlimit="10"/>
<path d="M3158.91 2226.44C3158.91 2226.44 3481.08 777.474 2471.85 1303.73C1462.63 1830 2104.67 555.909 1452.13 1007.21C799.588 1458.52 874.608 -9.11965 -389.867 87.6336" stroke="white" stroke-opacity="0.7" strokeWidth="4.5067" stroke-miterlimit="10"/>
<path d="M3155.53 2236.9C3155.53 2236.9 3464.44 803.024 2460.75 1325.15C1457.05 1847.27 2086 569.76 1427.22 1014.01C768.447 1458.26 845.76 -7.04698 -390.61 87.5584" stroke="white" stroke-opacity="0.7" strokeWidth="4.5067" stroke-miterlimit="10"/>
<path d="M3152.16 2247.36C3152.16 2247.36 3447.8 828.576 2449.64 1346.55C1451.49 1864.53 2067.33 583.611 1402.33 1020.8C737.315 1457.99 816.922 -4.98641 -391.354 87.4608" stroke="white" stroke-opacity="0.7" strokeWidth="4.5067" stroke-miterlimit="10"/>
<path d="M3148.78 2257.81C3148.78 2257.81 3431.16 854.118 2438.54 1367.96C1445.92 1881.8 2048.66 597.454 1377.42 1027.58C706.173 1457.71 788.079 -2.92231 -392.098 87.3751" stroke="white" stroke-opacity="0.7" strokeWidth="4.5067" stroke-miterlimit="10"/>
<path d="M3145.4 2268.27C3145.4 2268.27 3414.5 879.666 2427.42 1389.37C1440.34 1899.07 2029.98 611.305 1352.5 1034.38C675.026 1457.45 759.228 -0.863242 -392.844 87.293" stroke="white" stroke-opacity="0.7" strokeWidth="4.5067" stroke-miterlimit="10"/>
<path d="M3142.01 2278.72C3142.01 2278.72 3397.85 905.212 2416.31 1410.77C1434.77 1916.32 2011.3 625.15 1327.59 1041.16C643.878 1457.17 730.38 1.19804 -393.598 87.1961" stroke="white" stroke-opacity="0.7" strokeWidth="4.5067" stroke-miterlimit="10"/>
<path d="M3138.64 2289.18C3138.64 2289.18 3381.21 930.769 2405.21 1432.18C1429.2 1933.6 1992.64 639.008 1302.69 1047.95C612.742 1456.91 701.54 3.26401 -394.341 87.119" stroke="white" stroke-opacity="0.7" strokeWidth="4.5067" stroke-miterlimit="10"/>
<path d="M3135.25 2299.63C3135.25 2299.63 3364.56 956.317 2394.09 1453.58C1423.63 1950.85 1973.96 652.849 1277.78 1054.74C581.603 1456.63 672.687 5.31936 -395.089 87.0265" stroke="white" stroke-opacity="0.7" strokeWidth="4.5067" stroke-miterlimit="10"/>
<path d="M3131.86 2310.08C3131.86 2310.08 3347.9 981.855 2382.97 1474.99C1418.04 1968.12 1955.28 666.689 1252.86 1061.53C550.441 1456.36 643.833 7.38335 -395.842 86.934" stroke="white" stroke-opacity="0.7" strokeWidth="4.5067" stroke-miterlimit="10"/>
<path d="M3128.49 2320.54C3128.49 2320.54 3331.26 1007.4 2371.87 1496.39C1412.48 1985.37 1936.62 680.537 1227.96 1068.31C519.315 1456.09 614.994 9.43697 -396.583 86.8448" stroke="white" stroke-opacity="0.7" strokeWidth="4.5067" stroke-miterlimit="10"/>
<path d="M3125.11 2330.99C3125.11 2330.99 3314.62 1032.95 2360.76 1517.8C1406.91 2002.64 1917.94 694.388 1203.05 1075.1C488.174 1455.82 586.147 11.5042 -397.33 86.7555" stroke="white" stroke-opacity="0.7" strokeWidth="4.5067" stroke-miterlimit="10"/>
<path d="M3121.73 2341.44C3121.73 2341.44 3297.97 1058.5 2349.66 1539.21C1401.34 2019.9 1899.27 708.24 1178.15 1081.89C457.032 1455.56 557.308 13.5644 -398.076 86.6642" stroke="white" stroke-opacity="0.7" strokeWidth="4.5067" stroke-miterlimit="10"/>
<path d="M3118.34 2351.91C3118.34 2351.91 3281.31 1084.06 2338.53 1560.62C1395.75 2037.18 1880.58 722.092 1153.23 1088.69C425.879 1455.29 528.447 15.6331 -398.831 86.5851" stroke="white" stroke-opacity="0.7" strokeWidth="4.5067" stroke-miterlimit="10"/>
<path d="M3114.97 2362.36C3114.97 2362.36 3264.67 1109.61 2327.43 1582.02C1390.19 2054.44 1861.92 735.944 1128.33 1095.48C394.744 1455.02 499.613 17.7 -399.571 86.4937" stroke="white" stroke-opacity="0.7" strokeWidth="4.5067" stroke-miterlimit="10"/>
<path d="M3111.59 2372.82C3111.59 2372.82 3248.02 1135.15 2316.31 1603.43C1384.61 2071.71 1843.24 749.79 1103.42 1102.27C363.597 1454.75 470.761 19.7605 -400.318 86.4063" stroke="white" stroke-opacity="0.7" strokeWidth="4.5067" stroke-miterlimit="10"/>
<path d="M3108.22 2383.27C3108.22 2383.27 3231.38 1160.69 2305.22 1624.83C1379.05 2088.96 1824.58 763.628 1078.52 1109.05C332.463 1454.48 441.921 21.8129 -401.06 86.3157" stroke="white" stroke-opacity="0.7" strokeWidth="4.5067" stroke-miterlimit="10"/>
<path d="M3104.83 2393.72C3104.83 2393.72 3214.72 1186.24 2294.1 1646.23C1373.47 2106.23 1805.9 777.478 1053.61 1115.84C301.316 1454.2 413.073 23.8795 -401.808 86.2259" stroke="white" stroke-opacity="0.7" strokeWidth="4.5067" stroke-miterlimit="10"/>
<path d="M3101.46 2404.17C3101.46 2404.17 3198.09 1211.79 2283 1667.64C1367.9 2123.49 1787.23 791.324 1028.71 1122.63C270.187 1453.94 384.234 25.9331 -402.556 86.1347" stroke="white" stroke-opacity="0.7" strokeWidth="4.5067" stroke-miterlimit="10"/>
<path d="M3098.07 2414.63C3098.07 2414.63 3181.44 1237.33 2271.89 1689.04C1362.33 2140.75 1768.55 805.168 1003.79 1129.42C239.04 1453.66 355.38 27.9981 -403.302 86.0451" stroke="white" stroke-opacity="0.7" strokeWidth="4.5067" stroke-miterlimit="10"/>
<path d="M3094.69 2425.09C3094.69 2425.09 3164.78 1262.89 2260.77 1710.46C1356.75 2158.02 1749.87 819.029 978.882 1136.22C207.892 1453.4 326.533 30.069 -404.057 85.9644" stroke="white" stroke-opacity="0.7" strokeWidth="4.5067" stroke-miterlimit="10"/>
<path d="M3091.31 2435.55C3091.31 2435.55 3148.14 1288.44 2249.66 1731.87C1351.19 2175.29 1731.2 832.882 953.98 1143.01C176.753 1453.13 297.688 32.1295 -404.799 85.8838" stroke="white" stroke-opacity="0.7" strokeWidth="4.5067" stroke-miterlimit="10"/>
<path d="M3087.93 2446C3087.93 2446 3131.49 1313.99 2238.55 1753.27C1345.61 2192.55 1712.53 846.725 929.069 1149.8C145.612 1452.86 268.839 34.194 -405.546 85.7919" stroke="white" stroke-opacity="0.7" strokeWidth="4.5067" stroke-miterlimit="10"/>
<path d="M3084.55 2456.45C3084.55 2456.45 3114.84 1339.53 2227.44 1774.67C1340.04 2209.81 1693.85 860.565 904.16 1156.58C114.464 1452.59 239.995 36.2445 -406.293 85.6994" stroke="white" stroke-opacity="0.7" strokeWidth="4.5067" stroke-miterlimit="10"/>
<path d="M3081.17 2466.91C3081.17 2466.91 3098.19 1365.08 2216.33 1796.09C1334.46 2227.08 1675.18 874.421 879.25 1163.37C83.3227 1452.32 211.146 38.3144 -407.041 85.6129" stroke="white" stroke-opacity="0.7" strokeWidth="4.5067" stroke-miterlimit="10"/>
<path d="M3077.79 2477.36C3077.79 2477.36 3081.55 1390.62 2205.22 1817.48C1328.9 2244.34 1656.51 888.263 854.347 1170.16C52.1835 1452.05 182.308 40.3717 -407.78 85.5205" stroke="white" stroke-opacity="0.7" strokeWidth="4.5067" stroke-miterlimit="10"/>
<path d="M3074.41 2487.82C3074.41 2487.82 3064.9 1416.17 2194.11 1838.89C1323.32 2261.6 1637.83 902.108 829.439 1176.94C21.0406 1451.78 153.455 42.4305 -408.528 85.4313" stroke="white" stroke-opacity="0.7" strokeWidth="4.5067" stroke-miterlimit="10"/>
<path d="M3071.02 2498.27C3071.02 2498.27 3048.25 1441.72 2183 1860.3C1317.74 2278.86 1619.15 915.957 804.521 1183.73C-10.1077 1451.51 124.599 44.4941 -409.285 85.3452" stroke="white" stroke-opacity="0.7" strokeWidth="4.5067" stroke-miterlimit="10"/>
<path d="M3067.65 2508.74C3067.65 2508.74 3031.6 1467.29 2171.89 1881.71C1312.17 2296.14 1600.49 929.816 779.617 1190.53C-41.2395 1451.25 95.7596 46.5686 -410.032 85.2682" stroke="white" stroke-opacity="0.7" strokeWidth="4.5067" stroke-miterlimit="10"/>
<path d="M3064.27 2519.18C3064.27 2519.18 3014.96 1492.82 2160.77 1903.11C1306.6 2313.39 1581.81 943.658 754.708 1197.32C-72.3876 1450.97 66.9147 48.6202 -410.777 85.1701" stroke="white" stroke-opacity="0.7" strokeWidth="4.5067" stroke-miterlimit="10"/>
<path d="M3060.89 2529.64C3060.89 2529.64 2998.31 1518.37 2149.67 1924.52C1301.03 2330.66 1563.14 957.507 729.806 1204.1C-103.527 1450.7 38.0686 50.6837 -411.518 85.0858" stroke="white" stroke-opacity="0.7" strokeWidth="4.5067" stroke-miterlimit="10"/>
<path d="M3057.5 2540.09C3057.5 2540.09 2981.65 1543.92 2138.56 1945.92C1295.45 2347.92 1544.46 971.354 704.896 1210.89C-134.676 1450.43 9.22196 52.7407 -412.272 84.9913" stroke="white" stroke-opacity="0.7" strokeWidth="4.5067" stroke-miterlimit="10"/>
<path d="M3054.13 2550.55C3054.13 2550.55 2965.02 1569.47 2127.45 1967.33C1289.89 2365.19 1525.79 985.201 679.992 1217.68C-165.81 1450.16 -19.6197 54.8082 -413.008 84.9108" stroke="white" stroke-opacity="0.7" strokeWidth="4.5067" stroke-miterlimit="10"/>
<path d="M3050.75 2561C3050.75 2561 2948.37 1595.01 2116.35 1988.73C1284.32 2382.45 1507.12 999.044 655.088 1224.47C-196.951 1449.89 -48.4659 56.8664 -413.755 84.8193" stroke="white" stroke-opacity="0.7" strokeWidth="4.5067" stroke-miterlimit="10"/>
<path d="M3047.37 2571.45C3047.37 2571.45 2931.73 1620.56 2105.23 2010.14C1278.75 2399.71 1488.45 1012.89 630.177 1231.26C-228.092 1449.62 -77.3059 58.9259 -414.496 84.7291" stroke="white" stroke-opacity="0.7" strokeWidth="4.5067" stroke-miterlimit="10"/>
<path d="M3043.99 2581.92C3043.99 2581.92 2915.07 1646.12 2094.12 2031.55C1273.17 2416.99 1469.77 1026.75 605.262 1238.06C-259.24 1449.36 -106.159 60.9979 -415.257 84.6496" stroke="white" stroke-opacity="0.7" strokeWidth="4.5067" stroke-miterlimit="10"/>
<path d="M3040.61 2592.38C3040.61 2592.38 2898.43 1671.67 2083.02 2052.96C1267.6 2434.25 1451.1 1040.61 580.358 1244.85C-290.381 1449.09 -135 63.0627 -415.998 84.5647" stroke="white" stroke-opacity="0.7" strokeWidth="4.5067" stroke-miterlimit="10"/>
<path d="M3037.22 2602.83C3037.22 2602.83 2881.77 1697.21 2071.89 2074.36C1262.02 2451.51 1432.41 1054.44 555.443 1251.63C-321.535 1448.82 -163.86 65.1219 -416.758 84.4674" stroke="white" stroke-opacity="0.7" strokeWidth="4.5067" stroke-miterlimit="10"/>
<path d="M3033.85 2613.28C3033.85 2613.28 2865.14 1722.76 2060.8 2095.76C1256.46 2468.77 1413.75 1068.28 530.545 1258.41C-352.656 1448.54 -192.694 67.1773 -417.486 84.3749" stroke="white" stroke-opacity="0.7" strokeWidth="4.5067" stroke-miterlimit="10"/>
<path d="M3030.47 2623.73C3030.47 2623.73 2848.49 1748.3 2049.68 2117.16C1250.88 2486.03 1395.07 1082.14 505.636 1265.2C-383.803 1448.27 -221.546 69.2352 -418.239 84.2831" stroke="white" stroke-opacity="0.7" strokeWidth="4.5067" stroke-miterlimit="10"/>
<path d="M3027.09 2634.18C3027.09 2634.18 2831.84 1773.85 2038.58 2138.57C1245.31 2503.29 1376.41 1095.98 480.732 1271.99C-414.95 1448 -250.386 71.2949 -418.98 84.1931" stroke="white" stroke-opacity="0.7" strokeWidth="4.5067" stroke-miterlimit="10"/>
<path d="M3023.71 2644.64C3023.71 2644.64 2815.19 1799.4 2027.46 2159.98C1239.74 2520.55 1357.74 1109.83 455.822 1278.78C-446.084 1447.73 -279.234 73.3624 -419.729 84.1109" stroke="white" stroke-opacity="0.7" strokeWidth="4.5067" stroke-miterlimit="10"/>
<path d="M3020.33 2655.09C3020.33 2655.09 2798.54 1824.94 2016.35 2181.38C1234.16 2537.82 1339.06 1123.68 430.911 1285.57C-477.234 1447.46 -308.08 75.4223 -420.477 84.0211" stroke="white" stroke-opacity="0.7" strokeWidth="4.5067" stroke-miterlimit="10"/>
<path d="M3016.95 2665.56C3016.95 2665.56 2781.89 1850.5 2005.24 2202.8C1228.59 2555.09 1320.38 1137.54 406.002 1292.37C-508.374 1447.2 -336.934 77.4918 -421.231 83.9409" stroke="white" stroke-opacity="0.7" strokeWidth="4.5067" stroke-miterlimit="10"/>
<path d="M3013.55 2676.01C3013.55 2676.01 2765.23 1876.04 1994.12 2224.2C1223 2572.35 1301.69 1151.38 381.08 1299.16C-539.527 1446.93 -365.791 79.5487 -421.991 83.8548" stroke="white" stroke-opacity="0.7" strokeWidth="4.5067" stroke-miterlimit="10"/>
<path d="M3010.18 2686.47C3010.18 2686.47 2748.59 1901.59 1983.01 2245.61C1217.43 2589.62 1283.03 1165.23 356.184 1305.94C-570.663 1446.66 -394.633 81.6097 -422.732 83.7594" stroke="white" stroke-opacity="0.7" strokeWidth="4.5067" stroke-miterlimit="10"/>
<path d="M3006.8 2696.92C3006.8 2696.92 2731.95 1927.14 1971.9 2267.01C1211.86 2606.88 1264.36 1179.08 331.28 1312.73C-601.808 1446.38 -423.474 83.6765 -423.474 83.6765" stroke="white" stroke-opacity="0.7" strokeWidth="4.5067" stroke-miterlimit="10"/>
</g>
</svg>
